<svg id="logo"  data-name="Capa 1" xmlns="http://www.w3.org/2000/svg" xmlns:xlink="http://www.w3.org/1999/xlink" viewBox="0 0 519.21 233.94">

<defs>
<style>.cls-1,.cls-10{fill:none;stroke-miterlimit:22.93;}.cls-1{stroke:#fff;stroke-width:5.38px;}.cls-11,.cls-2,.cls-3,.cls-4,.cls-5,.cls-6,.cls-7,.cls-8,.cls-9{fill-rule:evenodd;}.cls-2{fill:url(#Degradado_sin_nombre);}.cls-3{fill:#fff;}.cls-4{fill:url(#Degradado_sin_nombre_2);}.cls-5{fill:url(#Degradado_sin_nombre_3);}.cls-6{fill:url(#Degradado_sin_nombre_4);}.cls-7{fill:url(#Degradado_sin_nombre_5);}.cls-8{fill:url(#Degradado_sin_nombre_6);}.cls-9{fill:url(#Degradado_sin_nombre_7);}.cls-10{stroke:#3f154b;stroke-width:0.63px;}.cls-11{fill:#3f154b;}</style>

<linearGradient id="Degradado_sin_nombre" x1="619.36" y1="851.1" x2="1133.18" y2="851.1" gradientTransform="matrix(1, 0, 0, -1, 0, 1560)" gradientUnits="userSpaceOnUse">

<stop offset="0" stop-color="#12143c"/><stop offset="0.19" stop-color="#13173d"/>

<stop offset="0.5" stop-color="#08b"/><stop offset="0.71" stop-color="#00a4e0"/>

<stop offset="1" stop-color="#00acec"/></linearGradient>

<linearGradient id="Degradado_sin_nombre_2" x1="867.61" y1="936.63" x2="867.61" y2="971.37" gradientTransform="matrix(1, 0, 0, -1, 0, 1560)" gradientUnits="userSpaceOnUse"><stop offset="0" stop-color="#12143c"/><stop offset="0.13" stop-color="#13173d"/>

<stop offset="0.6" stop-color="#0d80af"/>

<stop offset="0.83" stop-color="#00a4e0"/>

<stop offset="1" stop-color="#00acec"/>

</linearGradient>

<linearGradient id="Degradado_sin_nombre_3" x1="867.61" y1="966.85" x2="867.61" y2="944.4" gradientTransform="matrix(1, 0, 0, -1, 0, 1560)" gradientUnits="userSpaceOnUse">

<stop offset="0" stop-color="#12143c"/><stop offset="0.18" stop-color="#13173d"/>

<stop offset="0.74" stop-color="#00a4e0"/><stop offset="1" stop-color="#00acec"/></linearGradient>

<linearGradient id="Degradado_sin_nombre_4" x1="867.61" y1="892.8" x2="867.61" y2="963.13" xlink:href="#Degradado_sin_nombre_2"/>

<linearGradient id="Degradado_sin_nombre_5" x1="867.61" y1="960.28" x2="867.61" y2="895.55" gradientTransform="matrix(1, 0, 0, -1, 0, 1560)" gradientUnits="userSpaceOnUse"><stop offset="0" stop-color="#12143c"/><stop offset="0.18" stop-color="#13173d"/><stop offset="0.77" stop-color="#00a4e0"/><stop offset="1" stop-color="#00acec"/></linearGradient>

<linearGradient id="Degradado_sin_nombre_6" x1="867.61" y1="976.31" x2="867.61" y2="997.65" xlink:href="#Degradado_sin_nombre_2"/>

<linearGradient id="Degradado_sin_nombre_7" x1="912.79" y1="903.12" x2="912.79" y2="991.25" xlink:href="#Degradado_sin_nombre_2"/></defs><title>Logo</title>


<g id="Page-1" stroke="none" stroke-width="1" fill="none" fill-rule="evenodd">


<g id="vivantlogo_animated" transform="translate(2.000000, 1.000000)" stroke="#D02B40" stroke-width="3">

<path class="cls-1" d="M619.37,747.07h5V699.55c0-16.85,7.8-25.44,21.24-25.44s21.13,8.59,21.13,25.44v5.55H628.29v4.23h38.42v37.74h5V697.92c0-17.72-10.73-28.16-26.1-28.16s-26.22,10.44-26.22,28.16v49.15Zm66.79,0h4.52V719.89c0-11.85,7.68-20,18-20,1,0,2.37.1,3.84.22v-4.36c-1-.1-2.15-.22-3.16-.22a21,21,0,0,0-18.64,10.22v-10h-4.52v51.33Zm34.35-25.78a22.16,22.16,0,0,1,22.15-22.51c12.2,0,22,9.79,22,22.51a22.1,22.1,0,1,1-44.19,0Zm-4.86.12a26.43,26.43,0,0,0,8,18.92,27.22,27.22,0,0,0,38,0,26.58,26.58,0,0,0,0-37.84,27.19,27.19,0,0,0-38,0,26.43,26.43,0,0,0-8,18.92ZM780,747.07h4.52V714.23c0-9.35,6.33-15.44,14.92-15.44s14.92,6.09,14.92,15.44v32.84h4.52V714.23c0-9.35,6.22-15.44,14.92-15.44s14.92,6.09,14.92,15.44v32.84h4.63V715.64c0-13.27-7.91-20.88-19.78-20.88-7.23,0-12.77,3.26-16.95,10-4-6.63-9.61-10-17-10-11.87,0-19.66,7.61-19.66,20.88v31.43Zm132.55,0h4.63V724.34c0-7.07-1-12.5-3.73-16.85a26.85,26.85,0,0,0-23.17-12.72c-15.26,0-26.78,11.09-26.78,26.64a26.31,26.31,0,0,0,27,26.64,27.11,27.11,0,0,0,18.42-7v-5.87c-5.31,5.76-11.41,8.59-18.42,8.59-12.54,0-22.15-9.24-22.15-22.51,0-13,9.72-22.51,22.15-22.51,12.88,0,22,9.24,22,25.23v23.05Zm22.26,0V716.61c0-10.76,7.23-17.82,17.18-17.82s17.18,7.07,17.18,17.82v30.46h4.52V718c0-14.79-9-23.27-21.7-23.27s-21.7,8.48-21.7,23.27v29Zm52.1-65.89v48c0,12,7,17.94,21.13,17.94h2.37v-4.14h-3.16c-11,0-15.71-4.34-15.71-14.23V700h18.87v-4.24H991.49V681.18Zm32.88.1a3.34,3.34,0,0,0,6.67,0,3.25,3.25,0,0,0-3.39-3.15,3.15,3.15,0,0,0-3.28,3.15Zm1,65.79h4.63V695.74h-4.63v51.33Zm52.66-47.3v-4h-4.07c-7.68,0-13.9.87-19.66,4.68a24.77,24.77,0,0,0-11.64,21c0,15,11.3,25.66,31.3,25.66h4.07v-4h-5c-15.37,0-25.54-9.13-25.54-21.64s10.06-21.64,25.54-21.64Zm55.14,47.3h4.63V724.34c0-7.07-1-12.5-3.73-16.85a26.85,26.85,0,0,0-23.17-12.72c-15.26,0-26.78,11.09-26.78,26.64a26.31,26.31,0,0,0,27,26.64,27.11,27.11,0,0,0,18.42-7v-5.87c-5.31,5.76-11.41,8.59-18.42,8.59-12.54,0-22.15-9.24-22.15-22.51,0-13,9.72-22.51,22.15-22.51,12.88,0,22,9.24,22,25.23Z" transform="translate(-616.67 -560.73)"/>

<path class="cls-2" d="M619.37,747.07h5V699.55c0-16.85,7.8-25.44,21.24-25.44s21.13,8.59,21.13,25.44v5.55H628.29v4.23h38.42v37.74h5V697.92c0-17.72-10.74-28.16-26.1-28.16s-26.22,10.44-26.22,28.16v49.15Zm66.79,0h4.52V719.89c0-11.85,7.68-20,18-20,1,0,2.37.1,3.84.22v-4.36c-1-.1-2.15-.22-3.16-.22a21,21,0,0,0-18.64,10.22v-10h-4.52v51.33Zm34.35-25.78a22.16,22.16,0,0,1,22.15-22.51c12.2,0,22,9.79,22,22.51a22.09,22.09,0,1,1-44.18,0Zm-4.86.12a26.43,26.43,0,0,0,8,18.92,27.22,27.22,0,0,0,38,0,26.58,26.58,0,0,0,0-37.84,27.19,27.19,0,0,0-38,0,26.39,26.39,0,0,0-8,18.92ZM780,747.07h4.52V714.23c0-9.35,6.33-15.44,14.92-15.44s14.92,6.09,14.92,15.44v32.84h4.52V714.23c0-9.35,6.21-15.44,14.92-15.44s14.92,6.09,14.92,15.44v32.84h4.61V715.64c0-13.27-7.91-20.88-19.78-20.88-7.23,0-12.77,3.26-17,10-3.95-6.63-9.6-10-16.95-10-11.86,0-19.66,7.61-19.66,20.88v31.43Zm132.54,0h4.63V724.34c0-7.07-1-12.5-3.73-16.85a26.85,26.85,0,0,0-23.17-12.72c-15.25,0-26.78,11.09-26.78,26.64a26.31,26.31,0,0,0,27,26.64,27.11,27.11,0,0,0,18.42-7v-5.87c-5.31,5.76-11.41,8.59-18.42,8.59-12.54,0-22.15-9.24-22.15-22.51,0-13,9.72-22.51,22.15-22.51,12.88,0,22,9.24,22,25.23v23.05Zm22.27,0V716.61c0-10.76,7.23-17.82,17.18-17.82s17.18,7.07,17.18,17.82v30.46h4.52V718c0-14.79-9-23.27-21.7-23.27s-21.7,8.48-21.7,23.27v29Zm52.09-65.89v48c0,12,7,17.94,21.13,17.94h2.37v-4.14h-3.16c-11,0-15.71-4.34-15.71-14.23V700h18.87v-4.24H991.48V681.18Zm32.88.1a3.34,3.34,0,0,0,6.67,0,3.25,3.25,0,0,0-3.39-3.15,3.15,3.15,0,0,0-3.28,3.15Zm1,65.79h4.63V695.74h-4.63v51.33Zm52.66-47.3v-4h-4.07c-7.68,0-13.9.87-19.66,4.68a24.77,24.77,0,0,0-11.64,21c0,15,11.3,25.66,31.3,25.66h4.07v-4h-5c-15.37,0-25.54-9.13-25.54-21.64s10.06-21.64,25.54-21.64Zm55.14,47.3h4.63V724.34c0-7.07-1-12.5-3.73-16.85a26.85,26.85,0,0,0-23.17-12.72c-15.25,0-26.78,11.09-26.78,26.64a26.31,26.31,0,0,0,27,26.64,27.11,27.11,0,0,0,18.42-7v-5.87c-5.31,5.76-11.41,8.59-18.42,8.59-12.54,0-22.15-9.24-22.15-22.51,0-13,9.72-22.51,22.15-22.51,12.88,0,22,9.24,22,25.23Z" transform="translate(-616.67 -560.73)"/>

<path class="cls-3" d="M867.43,585.31c-5.16-.06-10.17-2.68-12.5-7.21a11,11,0,0,1,0-10.16c2.36-4.58,7.45-7.21,12.67-7.21s10.32,2.63,12.67,7.21a11.19,11.19,0,0,1,.94,2.53l.51-.14a91.77,91.77,0,0,1,18.4-3.23,62.36,62.36,0,0,1,16.76,1c9.44,2,18,6.59,23.21,14.6a30.42,30.42,0,0,1,3.79,8.45,33.73,33.73,0,0,1,.4,18.1,37.56,37.56,0,0,1-7.06,13.21c-2.8,3.57-6,6.81-9,10.26-2.42,2.84-4.82,6-6,9.52a14.45,14.45,0,0,0-.73,5,7.47,7.47,0,0,0,4.32,5.94,6.68,6.68,0,0,0,5-.19c3.13-1.21,6-3.93,8.17-6.36l1.86-2.09,3.78,3.68L943,650.13c-2.77,3.11-6.23,6.24-10.22,7.78a12,12,0,0,1-8.88.18,12.16,12.16,0,0,1-5.62-4.71,11.83,11.83,0,0,1-2-5.91,19.73,19.73,0,0,1,1-6.81c1.39-4.24,4.06-7.88,7-11.28s6.06-6.59,8.82-10.1a32.45,32.45,0,0,0,6.13-11.38,28.47,28.47,0,0,0-.4-15.37,24.61,24.61,0,0,0-3.14-7c-4.45-6.82-11.83-10.65-19.84-12.31a57.34,57.34,0,0,0-15.31-.91,86.52,86.52,0,0,0-17.36,3.06l-2,.55a10.94,10.94,0,0,1-.85,2.18c-2.33,4.53-7.34,7.15-12.5,7.21l1.34,2.62c2.48,4.86,8.4,8.55,13.39,10.66l.29.12,1.74,1.68-1.36,1.14a43.57,43.57,0,0,0-13.94,22.23l-1.63,6.4-1.63-6.4A43.5,43.5,0,0,0,852,601.53l-1.36-1.14,1.74-1.68.29-.12c5-2.11,10.91-5.8,13.39-10.66l1.34-2.62ZM896.6,657,891.18,665l7.84-5.77c9.59-7,14.36-15.73,17.65-26.64,1.21-4,2.15-8.13,3.48-12.1,1-3,2.33-6.14,4.66-8.37a11,11,0,0,1,2.34-1.72c1-.55.85-1.29.83-2.08l-.06-1.73-21.87,2.29,0,1.43c-.09,7.6.32,15.1-.6,22.7A52.43,52.43,0,0,1,896.6,657Zm-60.41,2.16c-9.59-7-14.36-15.73-17.65-26.64-1.21-4-2.15-8.13-3.48-12.1-1-3-2.33-6.14-4.66-8.37a11,11,0,0,0-2.34-1.72c-1-.55-.85-1.29-.83-2.08l.06-1.73,21.87,2.29,0,1.43c.09,7.6-.32,15.1.6,22.7a52.44,52.44,0,0,0,8.83,24l5.42,7.92-7.84-5.75Zm-4.44-63.93h-2.09l.45,2a102.73,102.73,0,0,1,2.3,14.45c.31,3.77.35,7.51.37,11.29s.06,7.68.38,11.54c.92,11.15,5.68,23.43,15.65,29.94a27.19,27.19,0,0,0,15.09,4.38h1.68V632.66c0-15.18-11.17-32.33-26.84-36.49a27.37,27.37,0,0,0-7-.92Zm73.35,2,.45-2h-2.09c-12.6,0-23.12,8.8-28.81,19a38.35,38.35,0,0,0-5,18.38v36.15h1.68a27.19,27.19,0,0,0,15.09-4.38c10-6.51,14.73-18.79,15.65-29.94.32-3.85.36-7.67.38-11.54s.06-7.52.37-11.29A102.64,102.64,0,0,1,905.1,597.21Z" transform="translate(-616.67 -560.73)"/>

<path class="cls-4" d="M853.14,600.3l.25-.24c7-2.95,12-7.12,14.22-11.43,2.2,4.31,7.27,8.48,14.22,11.43l.25.24a45.14,45.14,0,0,0-14.47,23.07,45.24,45.24,0,0,0-14.47-23.07Z" transform="translate(-616.67 -560.73)"/>

<path class="cls-5" d="M867.61,593.15a32.49,32.49,0,0,1-10.12,7.71,48.09,48.09,0,0,1,10.12,14.74,47.8,47.8,0,0,1,10.12-14.74,32.22,32.22,0,0,1-10.12-7.71Z" transform="translate(-616.67 -560.73)"/>

<path class="cls-6" d="M898,657.9c11.48-16.8,9.54-33.29,9.7-47.61l18.58-2a5.35,5.35,0,0,1,0,.62c-13.08,7.2-5.78,32.42-28.3,48.95Zm-60.79,0c-11.48-16.8-9.54-33.29-9.7-47.61l-18.58-2a5.35,5.35,0,0,0,0,.62c13.09,7.2,5.79,32.42,28.3,48.95Zm-5.46-61c17.68,0,32.15,18.79,32.15,35.8V667.2h0c-17.68,0-27.67-15.87-29.06-32.84-1-12.49.89-20.1-3.09-37.49Zm71.71,0c-17.68,0-32.15,18.79-32.15,35.8V667.2h0c17.68,0,27.67-15.87,29.06-32.84C901.4,621.87,899.49,614.26,903.46,596.87Z" transform="translate(-616.67 -560.73)"/>

<path class="cls-7" d="M908.09,642.34a59.47,59.47,0,0,0,4.37-11c1.22-4,2.17-8.21,3.52-12.22a29.22,29.22,0,0,1,3.55-7.49l-9.13,1c0,7,.24,13.84-.61,20.84a63.65,63.65,0,0,1-1.7,8.88Zm-81,0a63.79,63.79,0,0,1-1.7-8.87c-.85-7-.6-13.86-.61-20.84l-9.13-1a29.4,29.4,0,0,1,3.55,7.49c1.35,4,2.29,8.17,3.52,12.22a59.65,59.65,0,0,0,4.37,11Zm8-42.62a100.77,100.77,0,0,1,1.66,11.61c.32,3.88.37,7.72.38,11.6s.06,7.47.37,11.22c1.12,13.55,8.49,28.68,23.66,30.3v-31.8a34.22,34.22,0,0,0-4.51-16.38c-4.38-7.89-12.14-15.12-21.56-16.55Zm65,0q-1.25.19-2.46.51C883.89,603.88,874,619.38,874,632.66v31.79c15.17-1.61,22.55-16.75,23.66-30.29.31-3.75.35-7.46.37-11.22s.06-7.73.38-11.61a103.36,103.36,0,0,1,1.67-11.61Z" transform="translate(-616.67 -560.73)"/>

<path class="cls-8" d="M867.61,562.35c6.76,0,12.23,4.78,12.23,10.67s-5.48,10.67-12.23,10.67-12.23-4.78-12.23-10.67S860.85,562.35,867.61,562.35Z" transform="translate(-616.67 -560.73)"/>

<path class="cls-9" d="M882.19,571.89a90.43,90.43,0,0,1,18-3.18,60.51,60.51,0,0,1,16.29,1c9,1.87,17.17,6.23,22.15,13.88a28.76,28.76,0,0,1,3.59,8,32.07,32.07,0,0,1,.4,17.27,35.94,35.94,0,0,1-6.77,12.64c-2.79,3.55-6,6.78-8.91,10.21-2.57,3-5,6.3-6.28,10.06a16.33,16.33,0,0,0-.81,5.59,8.37,8.37,0,0,0,1.44,4.06,8.53,8.53,0,0,0,3.92,3.32,8.39,8.39,0,0,0,6.21-.19c3.4-1.31,6.47-4.17,8.82-6.81L941,647l1.41,1.37-.64.72c-2.57,2.89-5.86,5.9-9.57,7.33a10.25,10.25,0,0,1-7.62.18,10.54,10.54,0,0,1-4.84-4.07,10.34,10.34,0,0,1-1.76-5.09,18.12,18.12,0,0,1,.91-6.28c1.32-4,3.9-7.51,6.66-10.74,2.92-3.41,6.09-6.62,8.86-10.15a34,34,0,0,0,6.42-11.94,30,30,0,0,0-.4-16.2,26.6,26.6,0,0,0-3.33-7.44c-4.69-7.2-12.45-11.28-20.91-13a58.71,58.71,0,0,0-15.77-.94,87.76,87.76,0,0,0-17.71,3.12l-.35.1-.07-.35c-.08-.43-.17-.86-.28-1.29l-.07-.3Z" transform="translate(-616.67 -560.73)"/>

<path class="cls-3" d="M1004.53,774c1.29-3,4.24-4.35,7.57-4.35,4,0,7.68,1.89,7.68,6.29v8a5.23,5.23,0,0,0,.27,1.53l1.14,2.86h-5.44l-.36-.76a11.44,11.44,0,0,1-4.83,1,7.8,7.8,0,0,1-6-2.53v2.29h-5.19V774.83l-.47,0a3.42,3.42,0,0,0-2.56.63l0,0,0,0a3,3,0,0,0-.87,2.22v10.66h-5.21v-3.61a8.5,8.5,0,0,1-7.57,3.94,9.23,9.23,0,0,1-7.79-4.21v3.88h-5.19V777.13a2.29,2.29,0,0,0-4.57,0v11.23h-5.19V777.13a2.29,2.29,0,0,0-4.57,0v11.23H945.12v-.15a8.58,8.58,0,0,1-2.88.49,7.84,7.84,0,0,1-8-8v-5.47h-1.62v13.18h-5.22V775.19h-1.93v-.32a2.31,2.31,0,0,0-1.15.56l0,0,0,0a3,3,0,0,0-.87,2.22v10.66h-5.21v-3.61a8.5,8.5,0,0,1-7.57,3.94,9.34,9.34,0,0,1-9.33-9.47c0-.34,0-.69,0-1a8,8,0,0,1-5,1.65h-4.62v8.52h-5.19v-23.3h9.72c4.45,0,7.74,2.78,7.76,7.34a8.88,8.88,0,0,1,6.44-2.76,9.15,9.15,0,0,1,7.73,4.44V770h5.21v.13a8.75,8.75,0,0,1,3.92-.42l.2,0a6.2,6.2,0,0,1,7-5.6l1.9.17v5.06l-2.21-.14c-.9-.06-1.3.22-1.47.77h6.69v10.66a2.87,2.87,0,0,0,5.73,0V770h10.09a7.71,7.71,0,0,1,2.36-.36,7.59,7.59,0,0,1,4.93,1.74,7.55,7.55,0,0,1,11.91,3.22,9,9,0,0,1,15.75-.52V770h5.21v.13a8.73,8.73,0,0,1,3.91-.42h.05v-4.65h5.19V774Zm0,3.8v1.1a5.59,5.59,0,0,1,1.27-1.1Zm-97.63,3.45a4,4,0,0,0,3.66,2.27,3.35,3.35,0,0,0,3.55-2.27Zm72,0a4,4,0,0,0,3.66,2.27,3.35,3.35,0,0,0,3.55-2.27Zm30.18-4.7a19.17,19.17,0,0,1,2.13-.31,16.61,16.61,0,0,0,3.32-.53c-.22-.91-1.7-.91-2.47-.91-1.21,0-2.51.26-2.92,1.55l-.06.2Zm-146.89,8.2a8.5,8.5,0,0,1-7.57,3.94,9.52,9.52,0,0,1-.16-19,9.15,9.15,0,0,1,7.73,4.44V770h5.19v.19a8.8,8.8,0,0,1,3-.54c4.85,0,7.87,3.28,7.87,8.07v10.65h-5.19V777.71c0-1.93-.74-2.91-2.71-2.91a2.87,2.87,0,0,0-3,2.91v10.65h-5.19v-3.62ZM851,781.24a4,4,0,0,0,3.66,2.27,3.35,3.35,0,0,0,3.55-2.27Zm-26.77-7.32c.92-2.88,4.21-4.28,7.21-4.28,3.75,0,6.94,1.77,7.85,5.57l.61,2.56h-2.68a5.23,5.23,0,0,1,2.45,4.38v0a5.87,5.87,0,0,1-1.58,4.22,8.55,8.55,0,0,1-6.18,2.28c-3.27,0-6.41-1.21-7.88-3.92a9.09,9.09,0,0,1-7.45,3.92,8.89,8.89,0,0,1-6.41-2.71v2.2l-1.9.17c-4.4.4-7.12-2.74-7.12-7v-6.19h-1.93v-.32a2.48,2.48,0,0,0-1.15.56l0,0,0,0a3,3,0,0,0-.87,2.22v10.65h-5.21v-3.61a8.5,8.5,0,0,1-7.57,3.94,9.23,9.23,0,0,1-8-4.54,9.11,9.11,0,0,1-7.85,4.54,8.69,8.69,0,0,1-4-1v6.94h-5.19v-6.31h-2.1l-3.62-5-3.62,5H731.38v-23.3h16.85V770h2.09l3.3,4.54,3.3-4.54h7.61v.61a8.69,8.69,0,0,1,4-1,9.1,9.1,0,0,1,7.85,4.6,9,9,0,0,1,7.83-4.6,9.15,9.15,0,0,1,7.73,4.44V770h5.21v.14a8.48,8.48,0,0,1,3.92-.42h.11V767h5.19v3h3.83v2.38a8.87,8.87,0,0,1,6.41-2.74,9.05,9.05,0,0,1,7.65,4.29Zm1.55,5.48c0,.21,0,.44,0,.65h1.11a6.07,6.07,0,0,1-1.08-.65Zm-17.51-4.23h-1.93v6.19c0,1.34.27,2,1.66,1.9l.29,0a9.66,9.66,0,0,1-.88-4,10,10,0,0,1,.86-4Zm-48.94.31-2.51,3.45,2.51,3.47v-6.92Zm-12.77-1.82-2.48-3.41h-7.52v3.41Zm.45.62v4.54H736.57v4.34h10.77l3.07-4.23L747,774.28Zm33.68,7a4,4,0,0,0,3.66,2.27,3.35,3.35,0,0,0,3.55-2.27Zm48.54-5.77a13.75,13.75,0,0,0,2.84.64,21.25,21.25,0,0,1,2.22.44l-.08-.25c-.38-1.25-1.55-1.53-2.75-1.53-.43,0-1.94.18-2.23.7Zm-1.1,5.08.25,1.15c.34,1.58,2.13,1.85,3.51,1.85a3.65,3.65,0,0,0,2.47-.77.42.42,0,0,0,.11-.36v-.07c0-.7-2.7-1.05-3.15-1.12a18.3,18.3,0,0,1-3.19-.68Zm-55.65-1.33a4,4,0,1,0-4,4.29,4.15,4.15,0,0,0,4-4.29Zm9-3.17h5.48a3.78,3.78,0,0,0-2.74-1.21,3.86,3.86,0,0,0-2.74,1.21Zm35.14,7.5a4.18,4.18,0,0,0,4-4.34,4.24,4.24,0,0,0-4-4.45c-2.36,0-4,2.21-4,4.45a4.19,4.19,0,0,0,4,4.34Zm35.17-7.5h5.48a3.78,3.78,0,0,0-2.74-1.21,3.86,3.86,0,0,0-2.74,1.21Zm39.9-5.81v4.41h4.62c1.43,0,2.49-.69,2.49-2.22,0-1.69-1-2.19-2.58-2.19Zm16,5.81h5.48a3.78,3.78,0,0,0-2.74-1.21,3.82,3.82,0,0,0-2.74,1.21Zm72,0h5.48a3.78,3.78,0,0,0-2.74-1.21,3.86,3.86,0,0,0-2.74,1.21Zm34.9,4.92c-1,.19-1.94.27-2.85.36-.5,0-2.81.32-3.1.84a.87.87,0,0,0,0,.35c0,.71,1.49.89,2,.89,1.4,0,4-.44,4-2.3V781Z" transform="translate(-616.67 -560.73)"/>

<path class="cls-10" d="M734.48,768.17h11.66v-1H733.46v19.13h12.68v-1H734.48v-8.53h10.45v-1H734.48v-7.57Zm23.82,18.11h1.27L754.25,779l5-6.87H758l-4.36,6-4.36-6H748l5,6.87-5.32,7.33h1.27l4.69-6.48,4.69,6.48Zm17.32-7.06a7.33,7.33,0,0,0-7.11-7.5,6.89,6.89,0,0,0-6.07,3.8v-3.45h-1v20.51h1v-9.73a6.9,6.9,0,0,0,6.07,3.75,7.26,7.26,0,0,0,7.11-7.38Zm-1,0a6.08,6.08,0,1,1-6.07-6.45,6.23,6.23,0,0,1,6.07,6.45Zm16.71-.05a7.1,7.1,0,1,0-14.18.06,7.26,7.26,0,0,0,7.25,7.39,6.46,6.46,0,0,0,6.62-4.74h-1.08a5.41,5.41,0,0,1-5.54,3.72,6.25,6.25,0,0,1-6.23-6.42h13.16Zm-13-1a6,6,0,0,1,11.94,0Zm22.58-6.37a6,6,0,0,0-4.83,1.4,4.61,4.61,0,0,0-.94,1.28v-2.37h-1v14.2h1v-8.57a5,5,0,0,1,1.57-3.79,5.26,5.26,0,0,1,4.19-1.21v-.94Zm3.45,1.32h3.83v-1h-3.83v-3h-1v3h-1.93v1h1.93v8.27c0,3.17,1.79,5.18,4.85,4.91v-.94c-2.7.11-3.83-1.54-3.83-4V773.1Zm12.32-1.38a7.45,7.45,0,1,0,7.11,7.5,7.32,7.32,0,0,0-7.11-7.5Zm0,13.93a6.49,6.49,0,1,1,6.07-6.42,6.28,6.28,0,0,1-6.07,6.42Zm21-3.39c-.14-2.87-2.87-3.65-5.82-4.09-3.14-.44-4.63-1-4.66-2.59s1.79-2.9,4.36-2.9,4.16,1.1,4.74,3h1c-.61-2.56-2.67-4-5.82-4-3.56,0-5.38,1.93-5.38,3.86.06,2.81,3.09,3.23,5.54,3.58,3.47.5,4.88,1.38,4.94,3.12a2.56,2.56,0,0,1-.69,2,5.56,5.56,0,0,1-4,1.41c-3,0-5-1.21-5.54-3.5h-1c.47,2.9,3,4.47,6.59,4.47a6.54,6.54,0,0,0,4.69-1.65,3.8,3.8,0,0,0,1-2.71Zm24-3.09a7.1,7.1,0,1,0-14.18.06,7.26,7.26,0,0,0,7.25,7.39,6.46,6.46,0,0,0,6.62-4.74H860.2a5.41,5.41,0,0,1-5.54,3.72,6.25,6.25,0,0,1-6.23-6.42h13.16Zm-13-1a6,6,0,0,1,11.94,0Zm27.71-.44c0-3.69-2.15-6-5.79-6a5.85,5.85,0,0,0-5.13,2.76v-2.4h-1v14.2h1v-8.57a4.94,4.94,0,0,1,5.1-5c3.12,0,4.8,1.87,4.8,5v8.57h1v-8.58Zm25.61-5.28c0-3.25-2.18-5.28-5.68-5.28h-7.64v19.13h1v-8.52h6.7c3.31,0,5.6-2.18,5.6-5.33Zm-1,0c0,3-2.29,4.3-4.58,4.3h-6.7v-8.57h6.62c2.95,0,4.66,1.57,4.66,4.27Zm16.63,6.74a7.1,7.1,0,1,0-14.18.06,7.26,7.26,0,0,0,7.25,7.39,6.46,6.46,0,0,0,6.62-4.74h-1.08a5.41,5.41,0,0,1-5.54,3.72,6.25,6.25,0,0,1-6.23-6.42h13.16Zm-13.05-1a6,6,0,0,1,11.94,0ZM927,771.78a6,6,0,0,0-4.83,1.4,4.61,4.61,0,0,0-.94,1.28v-2.37h-1v14.2h1v-8.57a5,5,0,0,1,1.57-3.79,5.26,5.26,0,0,1,4.19-1.21v-.94Zm7.27,1.32v-1h-3.8v-.91c0-2.54,1.13-4.19,3.8-4v-.94c-3.06-.29-4.85,1.73-4.85,4.88v1h-1.93v1h1.93v13.18h1V773.09h3.8Zm13.93-1h-1v8.57a5,5,0,0,1-9.9,0v-8.57h-1v8.57a5.77,5.77,0,0,0,6,6,5.52,5.52,0,0,0,5-2.67v2.34h1v-14.2Zm24.51,5a5.23,5.23,0,0,0-5.4-5.41,5,5,0,0,0-4.8,3.14,5.21,5.21,0,0,0-5-3.14,5,5,0,0,0-4.36,2.29v-1.93h-1v14.2h1v-9.15a4.37,4.37,0,0,1,8.74,0v9.15h1v-9.15a4.37,4.37,0,0,1,8.74,0v9.15h1v-9.15Zm16.79,2a7.1,7.1,0,1,0-14.18.06,7.26,7.26,0,0,0,7.25,7.39,6.46,6.46,0,0,0,6.62-4.74h-1.08a5.41,5.41,0,0,1-5.54,3.72,6.25,6.25,0,0,1-6.23-6.42h13.16Zm-13-1a6,6,0,0,1,11.94,0Zm22.58-6.37a6,6,0,0,0-4.83,1.4,4.61,4.61,0,0,0-.94,1.28v-2.37h-1v14.2h1v-8.57a5,5,0,0,1,1.57-3.79,5.26,5.26,0,0,1,4.19-1.21v-.94Zm3.39-4.63h-1v2.53h1v-2.53Zm0,4.93h-1v14.2h1v-14.2Zm15.66,14.2a7.55,7.55,0,0,1-.41-2.32v-8c0-2.66-2-4.21-5.6-4.21-3.2,0-5.32,1.46-6,4h1.05c.61-1.93,2.32-3,4.91-3,2.1,0,4.58.61,4.58,3.22,0,1.74-2.1,2.08-5.24,2.37s-6,1-6,4.25c0,2.73,2.67,4,5.16,4,2.81,0,5-1,6.12-2.59v.28a4.77,4.77,0,0,0,.39,2.07Zm-1.43-5.17c0,3-3.06,4.38-6.12,4.38-1.41,0-4-.63-4-3,0-2,1.41-2.92,5-3.29,2-.16,4-.35,5.13-1.38v3.26Z" transform="translate(-616.67 -560.73)"/>

<path class="cls-11" d="M734.48,768.17h11.66v-1H733.46v19.13h12.68v-1H734.48v-8.53h10.45v-1H734.48v-7.57Zm23.82,18.11h1.27L754.25,779l5-6.87H758l-4.36,6-4.36-6H748l5,6.87-5.32,7.33h1.27l4.69-6.48,4.69,6.48Zm17.32-7.06a7.33,7.33,0,0,0-7.11-7.5,6.89,6.89,0,0,0-6.07,3.8v-3.45h-1v20.51h1v-9.73a6.9,6.9,0,0,0,6.07,3.75,7.26,7.26,0,0,0,7.11-7.38Zm-1,0a6.08,6.08,0,1,1-6.07-6.45,6.23,6.23,0,0,1,6.07,6.45Zm16.71-.05a7.1,7.1,0,1,0-14.18.06,7.26,7.26,0,0,0,7.25,7.39,6.46,6.46,0,0,0,6.62-4.74h-1.08a5.41,5.41,0,0,1-5.54,3.72,6.25,6.25,0,0,1-6.23-6.42h13.16Zm-13-1a6,6,0,0,1,11.94,0Zm22.58-6.37a6,6,0,0,0-4.83,1.4,4.61,4.61,0,0,0-.94,1.28v-2.37h-1v14.2h1v-8.57a5,5,0,0,1,1.57-3.79,5.26,5.26,0,0,1,4.19-1.21v-.94Zm3.45,1.32h3.83v-1h-3.83v-3h-1v3h-1.93v1h1.93v8.27c0,3.17,1.79,5.18,4.85,4.91v-.94c-2.7.11-3.83-1.54-3.83-4V773.1Zm12.32-1.38a7.45,7.45,0,1,0,7.11,7.5,7.32,7.32,0,0,0-7.11-7.5Zm0,13.93a6.49,6.49,0,1,1,6.07-6.42,6.28,6.28,0,0,1-6.07,6.42Zm21-3.39c-.14-2.87-2.87-3.65-5.82-4.09-3.14-.44-4.63-1-4.66-2.59s1.79-2.9,4.36-2.9,4.16,1.1,4.74,3h1c-.61-2.56-2.67-4-5.82-4-3.56,0-5.38,1.93-5.38,3.86.06,2.81,3.09,3.23,5.54,3.58,3.47.5,4.88,1.38,4.94,3.12a2.56,2.56,0,0,1-.69,2,5.56,5.56,0,0,1-4,1.41c-3,0-5-1.21-5.54-3.5h-1c.47,2.9,3,4.47,6.59,4.47a6.54,6.54,0,0,0,4.69-1.65,3.8,3.8,0,0,0,1-2.71Zm24-3.09a7.1,7.1,0,1,0-14.18.06,7.26,7.26,0,0,0,7.25,7.39,6.46,6.46,0,0,0,6.62-4.74H860.2a5.41,5.41,0,0,1-5.54,3.72,6.25,6.25,0,0,1-6.23-6.42h13.16Zm-13-1a6,6,0,0,1,11.94,0Zm27.71-.44c0-3.69-2.15-6-5.79-6a5.85,5.85,0,0,0-5.13,2.76v-2.4h-1v14.2h1v-8.57a4.94,4.94,0,0,1,5.1-5c3.12,0,4.8,1.87,4.8,5v8.57h1v-8.58Zm25.61-5.28c0-3.25-2.18-5.28-5.68-5.28h-7.64v19.13h1v-8.52h6.7c3.31,0,5.6-2.18,5.6-5.33Zm-1,0c0,3-2.29,4.3-4.58,4.3h-6.7v-8.57h6.62c2.95,0,4.66,1.57,4.66,4.27Zm16.63,6.74a7.1,7.1,0,1,0-14.18.06,7.26,7.26,0,0,0,7.25,7.39,6.46,6.46,0,0,0,6.62-4.74h-1.08a5.41,5.41,0,0,1-5.54,3.72,6.25,6.25,0,0,1-6.23-6.42h13.16Zm-13.05-1a6,6,0,0,1,11.94,0ZM927,771.78a6,6,0,0,0-4.83,1.4,4.61,4.61,0,0,0-.94,1.28v-2.37h-1v14.2h1v-8.57a5,5,0,0,1,1.57-3.79,5.26,5.26,0,0,1,4.19-1.21v-.94Zm7.27,1.32v-1h-3.8v-.91c0-2.54,1.13-4.19,3.8-4v-.94c-3.06-.29-4.85,1.73-4.85,4.88v1h-1.93v1h1.93v13.18h1V773.09h3.8Zm13.93-1h-1v8.57a5,5,0,0,1-9.9,0v-8.57h-1v8.57a5.77,5.77,0,0,0,6,6,5.52,5.52,0,0,0,5-2.67v2.34h1v-14.2Zm24.51,5a5.23,5.23,0,0,0-5.4-5.41,5,5,0,0,0-4.8,3.14,5.21,5.21,0,0,0-5-3.14,5,5,0,0,0-4.36,2.29v-1.93h-1v14.2h1v-9.15a4.37,4.37,0,0,1,8.74,0v9.15h1v-9.15a4.37,4.37,0,0,1,8.74,0v9.15h1v-9.15Zm16.79,2a7.1,7.1,0,1,0-14.18.06,7.26,7.26,0,0,0,7.25,7.39,6.46,6.46,0,0,0,6.62-4.74h-1.08a5.41,5.41,0,0,1-5.54,3.72,6.25,6.25,0,0,1-6.23-6.42h13.16Zm-13-1a6,6,0,0,1,11.94,0Zm22.58-6.37a6,6,0,0,0-4.83,1.4,4.61,4.61,0,0,0-.94,1.28v-2.37h-1v14.2h1v-8.57a5,5,0,0,1,1.57-3.79,5.26,5.26,0,0,1,4.19-1.21v-.94Zm3.39-4.63h-1v2.53h1v-2.53Zm0,4.93h-1v14.2h1v-14.2Zm15.66,14.2a7.55,7.55,0,0,1-.41-2.32v-8c0-2.66-2-4.21-5.6-4.21-3.2,0-5.32,1.46-6,4h1.05c.61-1.93,2.32-3,4.91-3,2.1,0,4.58.61,4.58,3.22,0,1.74-2.1,2.08-5.24,2.37s-6,1-6,4.25c0,2.73,2.67,4,5.16,4,2.81,0,5-1,6.12-2.59v.28a4.77,4.77,0,0,0,.39,2.07Zm-1.43-5.17c0,3-3.06,4.38-6.12,4.38-1.41,0-4-.63-4-3,0-2,1.41-2.92,5-3.29,2-.16,4-.35,5.13-1.38v3.26Z" transform="translate(-616.67 -560.73)"/>

</g>
</g>






</svg>